<svg width="1271" height="688" viewBox="0 0 1271 688" fill="none" xmlns="http://www.w3.org/2000/svg">
<g clip-path="url(#clip0_159_474)">
<path d="M418.566 688C380.214 688 341.92 687.259 303.683 685.776C249.048 683.657 192.552 681.467 140.041 650.018C103.307 628.021 70.7735 592.727 45.9586 547.951C29.3726 517.603 17.2111 484.678 9.9011 450.335C-3.73479 387.807 -3.27034 322.658 11.2554 260.365C16.3458 239.007 23.3632 218.239 32.207 198.36C70.5011 112.731 140.347 55.2509 223.836 40.6588C224.525 40.5622 225.222 40.5461 225.915 40.6109C226.29 40.6326 226.665 40.6558 227.046 40.6386L227.537 40.47C228.797 39.9974 230.09 39.6389 231.405 39.3983C360.166 18.6995 496.286 60.5806 625.038 160.511C724.589 237.787 856.522 279.399 1028.38 287.725L1030.82 287.863C1078.66 290.83 1124.93 312.128 1164.65 349.456C1203.85 386.299 1233.28 435.455 1249.76 491.611C1251.79 498.457 1253.64 505.584 1255.28 512.792C1256.81 519.49 1256.7 526.5 1254.97 533.141C1253.24 539.781 1249.95 545.825 1245.42 550.685V550.698L1244.99 551.174C1243.96 552.28 1242.87 553.341 1241.77 554.329L1240.46 555.489C1229.48 565.258 1220.81 572.975 1210.42 578.968C1203.5 582.939 1196.14 585.941 1188.51 587.903C1146.63 598.928 1104.1 609.149 1062.1 618.286C980.543 636.043 896.833 650.692 813.299 661.824C682.341 679.26 550.515 688.002 418.566 688ZM224.939 43.6436C224.682 43.641 224.426 43.6598 224.172 43.6998C141.464 58.1555 72.2792 115.072 34.3648 199.853C25.6083 219.535 18.6603 240.096 13.6205 261.243C-0.772882 322.984 -1.23156 387.554 12.283 449.527C19.5214 483.542 31.5651 516.151 47.9909 546.21C72.563 590.547 104.764 625.486 141.112 647.251C193.152 678.418 249.382 680.599 303.76 682.706C473.838 689.268 644.129 681.265 813.036 658.772C896.515 647.647 980.171 633.008 1061.68 615.261C1103.65 606.132 1146.15 595.918 1188 584.899C1195.44 582.987 1202.63 580.058 1209.38 576.184C1219.56 570.312 1228.15 562.668 1239.03 552.992L1240.33 551.833C1241.28 550.983 1242.22 550.075 1243.11 549.131L1243.37 548.84C1252.31 539.112 1255.78 526.276 1252.91 513.626V513.625C1251.29 506.494 1249.45 499.443 1247.44 492.667C1213.77 377.951 1126.67 296.881 1030.7 290.929L1028.27 290.791C949.771 286.987 881.077 276.451 818.273 258.576C743.299 237.24 677.846 205.121 623.731 163.114C495.469 63.5669 359.918 21.8417 231.719 42.4423C230.522 42.6654 229.343 42.9953 228.196 43.4285L227.311 43.6961C226.808 43.7204 226.304 43.7139 225.802 43.6766C225.506 43.6601 225.219 43.6436 224.939 43.6436Z" fill="#F0F0F0"/>
<path d="M397.008 224.159C393.458 220.48 389.826 199.969 385.294 197.886C388.682 205.972 386.222 208.113 386.204 216.987C386.246 222.026 385.701 227.051 384.582 231.943H307.797V167.235C307.797 161.421 308.857 155.664 310.918 150.292C312.978 144.921 315.998 140.04 319.806 135.929C323.613 131.817 328.133 128.556 333.107 126.331C338.082 124.106 343.414 122.961 348.798 122.961C350.853 123.005 352.895 123.328 354.875 123.922C361.475 125.846 367.491 129.611 372.318 134.838C377.145 140.064 380.615 146.57 382.378 153.702C388.232 176.806 397.542 215.263 397.008 224.159Z" fill="#2F2E41"/>
<path d="M312.303 303.761L312.34 253.326L284.884 255.975L294.574 287.785L290.039 367.74C287.84 368.272 285.831 369.485 284.259 371.229C282.687 372.973 281.618 375.174 281.184 377.562C280.75 379.951 280.969 382.424 281.814 384.681C282.659 386.937 284.094 388.88 285.943 390.271C287.793 391.662 289.978 392.442 292.231 392.516C294.484 392.59 296.708 391.954 298.633 390.686C300.557 389.418 302.098 387.573 303.068 385.376C304.038 383.179 304.395 380.724 304.096 378.312L312.303 303.761Z" fill="#FFB6B6"/>
<path d="M366.335 664.177L377.427 664.176L382.705 617.977H366.333L366.335 664.177Z" fill="#FFB6B6"/>
<path d="M362.579 658.268L380.113 657.138V665.251L396.784 677.683C397.608 678.297 398.228 679.179 398.554 680.2C398.88 681.222 398.896 682.329 398.598 683.361C398.3 684.392 397.705 685.294 396.899 685.934C396.093 686.575 395.118 686.92 394.118 686.92H373.242L369.644 678.896L368.239 686.92H360.368L362.579 658.268Z" fill="#2F2E41"/>
<path d="M302.198 664.177L313.291 664.176L318.567 617.977H302.196L302.198 664.177Z" fill="#FFB6B6"/>
<path d="M298.442 658.268L315.976 657.138V665.251L332.647 677.683C333.471 678.297 334.091 679.179 334.417 680.2C334.743 681.222 334.759 682.329 334.461 683.361C334.163 684.392 333.568 685.294 332.762 685.934C331.956 686.575 330.981 686.92 329.981 686.92H309.105L305.507 678.896L304.102 686.92H296.231L298.442 658.268Z" fill="#2F2E41"/>
<path d="M356.458 198.859L333.479 199.346L317.259 217.834L304.255 219.893C298.372 220.825 292.964 223.908 288.934 228.629C284.905 233.349 282.497 239.42 282.115 245.826L284.368 259.188H297.885L305.704 308.765C302.664 317.131 302.457 323.735 308.698 326.329L328.072 365.737L385.294 338.005C388.196 332.618 389.125 327.207 386.159 321.945L390.25 246.052H404.004C404.004 231.858 399.558 219.891 386.494 218.312C381.307 217.706 376.094 217.384 370.876 217.347L356.458 198.859Z" fill="#E6E6E6"/>
<path d="M385.294 338.005C385.294 338.005 329.424 348.709 308.698 326.329C308.698 326.329 306.594 330.186 303.423 336.583C302.511 338.423 300.75 339.669 299.687 341.898C298.72 343.923 296.234 346.413 295.181 348.71C294.334 350.557 295.693 352.972 294.812 354.969C284.197 379.008 271.797 412.919 274.455 435.31C276.17 449.75 279.711 483.351 283.44 519.439C283.731 522.259 281.371 525.881 281.664 528.723C281.94 531.403 284.87 533.302 285.146 535.988C285.329 537.772 283.284 539.591 283.467 541.373C283.667 543.327 286.096 545.243 286.296 547.19C291.405 597.02 296.082 643.543 296.082 643.543H322.215L327.146 537.29L323.116 498.559L332.578 420.228L345.644 494.666L347.325 536.561L361.134 645.489H385.294V540.04L387.096 534.561L385.294 527.536L387.096 519.966L385.294 511.722V338.005Z" fill="#2F2E41"/>
<path d="M363.511 184.47C359.951 189.576 354.887 193.221 349.153 194.804C343.42 196.387 337.357 195.814 331.965 193.18C326.573 190.546 322.172 186.007 319.488 180.311C316.803 174.616 315.995 168.103 317.197 161.845C318.398 155.587 321.538 149.958 326.098 145.884C330.658 141.81 336.367 139.535 342.285 139.432C348.202 139.33 353.976 141.407 358.654 145.321C363.333 149.235 366.637 154.753 368.023 160.967C368.098 161.304 368.162 161.639 368.223 161.987C368.955 165.881 368.914 169.899 368.101 173.775C367.289 177.65 365.724 181.296 363.511 184.47Z" fill="#FFB6B6"/>
<path d="M358.08 168.422C357.527 165.428 356.13 162.691 354.079 160.589C354.281 163.459 353.912 166.342 352.997 169.045C346.147 169.7 339.266 168.228 333.164 164.803C328.568 161.436 322.72 161.728 315.907 164.803C315.907 161.225 316.559 157.681 317.827 154.376C319.095 151.07 320.953 148.066 323.296 145.536C325.639 143.006 328.421 140.999 331.482 139.63C334.544 138.261 337.825 137.557 341.139 137.557H345.644C352.336 137.559 358.753 140.429 363.484 145.539C368.216 150.648 370.875 157.577 370.876 164.803C366.717 166.413 362.435 167.624 358.08 168.422Z" fill="#2F2E41"/>
<path d="M160.961 515.675C200.995 515.675 233.448 480.632 233.448 437.403C233.448 394.175 200.995 359.131 160.961 359.131C120.928 359.131 88.4749 394.175 88.4749 437.403C88.4749 480.632 120.928 515.675 160.961 515.675Z" fill="#F0F0F0"/>
<path d="M1198.51 527.953C1238.55 527.953 1271 492.91 1271 449.681C1271 406.453 1238.55 371.409 1198.51 371.409C1158.48 371.409 1126.03 406.453 1126.03 449.681C1126.03 492.91 1158.48 527.953 1198.51 527.953Z" fill="#F0F0F0"/>
<path d="M696.874 59.5341C696.875 59.0475 697.054 58.5812 697.372 58.2371C697.691 57.8931 698.123 57.6996 698.574 57.699H710.129C710.579 57.7004 711.01 57.8944 711.328 58.2384C711.646 58.5823 711.824 59.0483 711.824 59.5341C711.824 60.0198 711.646 60.4858 711.328 60.8297C711.01 61.1737 710.579 61.3677 710.129 61.3691H698.574C698.123 61.3685 697.691 61.175 697.372 60.831C697.054 60.487 696.875 60.0206 696.874 59.5341Z" fill="#3F3D56"/>
<path d="M716.587 61.3691C717.525 61.3691 718.286 60.5475 718.286 59.5341C718.286 58.5206 717.525 57.699 716.587 57.699C715.648 57.699 714.888 58.5206 714.888 59.5341C714.888 60.5475 715.648 61.3691 716.587 61.3691Z" fill="#3F3D56"/>
<path d="M346.912 415H156.76C154.06 414.993 151.472 413.831 149.562 411.769C147.653 409.708 146.577 406.913 146.569 403.998V303.949C146.576 301.033 147.652 298.239 149.561 296.177C151.471 294.115 154.058 292.953 156.759 292.945H346.911C349.611 292.952 352.199 294.114 354.108 296.176C356.018 298.237 357.094 301.032 357.101 303.947V403.996C357.094 406.912 356.019 409.706 354.109 411.768C352.2 413.83 349.613 414.992 346.912 415Z" fill="white"/>
<path d="M346.912 415H156.76C154.06 414.993 151.472 413.831 149.562 411.769C147.653 409.708 146.577 406.913 146.569 403.998V303.949C146.576 301.033 147.652 298.239 149.561 296.177C151.471 294.115 154.058 292.953 156.759 292.945H346.911C349.611 292.952 352.199 294.114 354.108 296.176C356.018 298.237 357.094 301.032 357.101 303.947V403.996C357.094 406.912 356.019 409.706 354.109 411.768C352.2 413.83 349.613 414.992 346.912 415ZM156.76 296.014C154.813 296.021 152.947 296.859 151.57 298.346C150.193 299.833 149.417 301.848 149.412 303.95V403.996C149.418 406.099 150.194 408.114 151.571 409.6C152.948 411.087 154.814 411.925 156.761 411.931H346.909C348.857 411.925 350.723 411.087 352.1 409.6C353.477 408.113 354.253 406.098 354.259 403.995V303.949C354.253 301.846 353.477 299.831 352.1 298.345C350.723 296.858 348.857 296.02 346.909 296.014L156.76 296.014Z" fill="#3F3D56"/>
<path d="M262.027 400.215C224.525 400.215 185.421 399.828 170.83 399.577C168.911 399.534 167.083 398.683 165.736 397.204C164.39 395.726 163.632 393.738 163.625 391.665V308.847C163.626 308.105 163.899 307.393 164.384 306.867C164.87 306.342 165.528 306.045 166.216 306.042H337.449C338.136 306.043 338.795 306.338 339.282 306.862C339.769 307.386 340.043 308.097 340.046 308.84V365.03C340.014 374.202 336.654 382.996 330.687 389.524C324.72 396.052 316.621 399.794 308.128 399.949C294.53 400.14 278.428 400.215 262.027 400.215Z" fill="#2B78E4"/>
<path d="M327.285 359.868H172.562C171.267 359.864 170.004 359.429 168.945 358.623C167.886 357.817 167.083 356.679 166.644 355.362L149.132 302.312C148.794 301.288 148.689 300.193 148.825 299.117C148.961 298.04 149.334 297.015 149.913 296.127C150.492 295.239 151.26 294.514 152.152 294.012C153.044 293.511 154.035 293.248 155.041 293.246L348.441 292.955C349.36 292.954 350.269 293.171 351.102 293.59C351.935 294.009 352.674 294.621 353.264 295.382C353.855 296.142 354.284 297.033 354.521 297.993C354.759 298.952 354.798 299.955 354.637 300.933L354.786 301.001L354.231 302.4L354.226 302.414L333.055 355.755C332.573 356.976 331.769 358.017 330.743 358.748C329.716 359.48 328.514 359.869 327.285 359.868ZM348.45 296.025L155.046 296.316C154.495 296.317 153.953 296.461 153.464 296.735C152.975 297.01 152.554 297.407 152.237 297.893C151.92 298.38 151.716 298.941 151.641 299.531C151.566 300.12 151.624 300.721 151.809 301.281L169.321 354.33C169.561 355.051 170.002 355.675 170.582 356.116C171.162 356.558 171.854 356.796 172.564 356.798H327.285C327.957 356.799 328.615 356.586 329.177 356.185C329.738 355.785 330.178 355.215 330.442 354.547L351.613 301.205C351.838 300.64 351.929 300.023 351.878 299.41C351.827 298.798 351.637 298.209 351.323 297.695C351.01 297.182 350.583 296.76 350.082 296.469C349.58 296.177 349.019 296.025 348.45 296.025Z" fill="#3F3D56"/>
<path d="M251.547 371.415C258.238 371.415 263.662 365.558 263.662 358.333C263.662 351.108 258.238 345.251 251.547 345.251C244.856 345.251 239.432 351.108 239.432 358.333C239.432 365.558 244.856 371.415 251.547 371.415Z" fill="white"/>
<path d="M1167.43 434.518L1135.07 400.017C1133.49 398.324 1131.62 396.983 1129.57 396.072C1127.51 395.161 1125.31 394.697 1123.08 394.706H1122.97C1120.73 394.713 1118.52 395.2 1116.45 396.138C1114.39 397.076 1112.52 398.446 1110.95 400.17C1103.71 408.078 1099.59 418.707 1099.46 429.823C1099.34 440.939 1103.2 451.677 1110.25 459.78C1110.59 460.179 1110.95 460.562 1111.3 460.946C1113.27 463.059 1115.44 464.937 1117.78 466.548C1124.18 471.012 1131.64 473.374 1139.26 473.347H1139.5C1144.73 473.328 1149.9 472.189 1154.72 469.997C1159.54 467.806 1163.91 464.604 1167.57 460.578C1170.75 457.099 1172.52 452.401 1172.49 447.516C1172.46 442.631 1170.64 437.956 1167.43 434.518ZM1165.55 458.414C1159.54 464.95 1151.63 469.05 1143.15 470.023C1134.67 470.996 1126.14 468.782 1118.99 463.755C1116.95 462.294 1115.04 460.624 1113.29 458.767C1106.32 451.33 1102.37 441.207 1102.31 430.624C1102.24 420.04 1106.08 409.865 1112.97 402.334C1114.27 400.894 1115.84 399.749 1117.56 398.966C1119.28 398.184 1121.13 397.779 1123 397.776H1123.08C1124.94 397.769 1126.77 398.156 1128.48 398.914C1130.19 399.672 1131.75 400.788 1133.06 402.196L1165.43 436.712C1168.1 439.574 1169.62 443.466 1169.65 447.535C1169.67 451.603 1168.2 455.516 1165.55 458.414Z" fill="#3F3D56"/>
<path d="M1061.24 321.284L1028.88 286.768C1025.7 283.355 1021.39 281.445 1016.9 281.457H1016.8C1014.56 281.467 1012.34 281.956 1010.27 282.897C1008.21 283.837 1006.33 285.21 1004.76 286.936C998.779 293.497 994.9 301.954 993.693 311.068C992.486 320.182 994.014 329.475 998.053 337.583L998.067 337.598C999.733 340.915 1001.8 343.976 1004.22 346.699C1004.49 347.037 1004.8 347.375 1005.12 347.712C1012.55 355.678 1022.6 360.138 1033.07 360.113H1033.33C1038.56 360.089 1043.73 358.948 1048.55 356.753C1053.37 354.559 1057.74 351.356 1061.4 347.329C1062.97 345.607 1064.22 343.568 1065.06 341.328C1065.91 339.088 1066.33 336.69 1066.32 334.271C1066.3 331.853 1065.85 329.461 1064.98 327.233C1064.11 325.004 1062.84 322.983 1061.24 321.284ZM1059.37 345.18C1055.97 348.917 1051.91 351.889 1047.44 353.926C1042.97 355.962 1038.17 357.022 1033.32 357.044H1033.07C1025.79 357.041 1018.66 354.711 1012.6 350.347C1006.53 345.983 1001.8 339.78 998.988 332.518C996.179 325.257 995.422 317.26 996.811 309.535C998.2 301.809 1001.67 294.7 1006.79 289.1C1009.44 286.208 1013.05 284.568 1016.82 284.542C1020.58 284.517 1024.21 286.106 1026.89 288.962L1059.25 323.463C1061.93 326.33 1063.45 330.225 1063.47 334.296C1063.49 338.367 1062.02 342.281 1059.37 345.18Z" fill="#3F3D56"/>
<path d="M1169.5 445.365L1133.82 407.313C1131.48 404.823 1128.32 403.437 1125.04 403.459C1121.75 403.481 1118.61 404.909 1116.3 407.43C1113.41 410.584 1111.12 414.322 1109.57 418.43C1108.02 422.538 1107.23 426.937 1107.25 431.374C1107.28 435.811 1108.11 440.2 1109.7 444.289C1111.3 448.378 1113.62 452.088 1116.55 455.206C1119.47 458.324 1122.94 460.789 1126.74 462.461C1130.55 464.132 1134.62 464.977 1138.73 464.947C1142.84 464.917 1146.9 464.013 1150.69 462.286C1154.47 460.559 1157.91 458.043 1160.79 454.883L1169.5 445.365Z" fill="#2B78E4"/>
<path d="M1063.32 332.125L1027.64 294.073C1025.3 291.583 1022.14 290.197 1018.86 290.219C1015.57 290.241 1012.43 291.67 1010.12 294.19C1007.23 297.344 1004.94 301.082 1003.39 305.19C1001.84 309.299 1001.05 313.697 1001.07 318.134C1001.1 322.571 1001.93 326.96 1003.52 331.049C1005.12 335.138 1007.44 338.848 1010.37 341.966C1013.29 345.084 1016.76 347.549 1020.56 349.221C1024.37 350.892 1028.44 351.737 1032.55 351.707C1036.66 351.677 1040.73 350.773 1044.51 349.046C1048.3 347.319 1051.73 344.804 1054.61 341.643L1063.32 332.125Z" fill="#2B78E4"/>
<path d="M1130.29 469.065L1129.44 471.49C1125.43 469.848 1121.55 468.2 1117.78 466.548C1051.15 437.188 1019.34 402.825 998.067 337.598L998.053 337.583C997.044 334.514 996.063 331.372 995.111 328.16L997.356 327.377C998.107 330.467 999.205 333.446 1000.63 336.248C1001.79 339.824 1002.99 343.308 1004.22 346.7C1024.22 401.751 1053.71 433.213 1110.25 459.78C1113.09 461.115 1116.01 462.44 1118.99 463.755C1122.46 466.193 1126.28 467.988 1130.29 469.065Z" fill="#3F3D56"/>
<path d="M1028.29 357.319L1026.29 359.504L1100.11 438.233L1102.11 436.049L1028.29 357.319Z" fill="#3F3D56"/>
<path d="M403.316 292.085L403.354 241.649L375.898 244.298L385.588 276.108L350.414 333.683C348.215 334.216 346.207 335.428 344.634 337.172C343.062 338.917 341.994 341.117 341.559 343.506C341.125 345.894 341.344 348.367 342.189 350.624C343.034 352.881 344.469 354.823 346.319 356.214C348.168 357.605 350.353 358.385 352.606 358.459C354.859 358.533 357.084 357.897 359.008 356.629C360.932 355.361 362.473 353.516 363.443 351.319C364.413 349.122 364.77 346.668 364.471 344.255L403.316 292.085Z" fill="#FFB6B6"/>
</g>
<defs>
<clipPath id="clip0_159_474">
<rect width="1271" height="688" fill="white"/>
</clipPath>
</defs>
</svg>
