<svg width="2406" height="2406" viewBox="0 0 2406 2406" fill="none" xmlns="http://www.w3.org/2000/svg">
<g clip-path="url(#clip0_229_366)">
<path d="M0 515.4C0 196.5 258.5 -62 577.4 -62H1826.5C2145.5 -62 2404 196.5 2404 515.4V2343H577.4C258.5 2343 0 2084.5 0 1765.6V515.4Z" fill="#4A3AFF"/>
<path d="M1942.64 499.972C1835.1 333.723 1632.67 255.17 1441.53 305.809L1321.12 357.372L961.84 589.78C943.872 601.403 933.893 620.959 934.651 642.383L955.079 1039.46L1448.8 720.089L1448.86 720.173L1472.28 705.019L1830.78 888.416C1865.48 906.123 1896.63 929.715 1923.13 957.86L2000.51 867.826C2034.76 742.537 2013.64 608.632 1942.64 499.972ZM1843.98 563.791L1843.15 563.613C1886.44 630.532 1904.95 709.786 1895.51 788.901C1893.14 787.454 1887.88 785.024 1884.41 782.978L1514.3 593.041C1495.58 583.24 1473.14 584.65 1455.18 596.273L1046.02 860.943L1036.84 682.158L1375.05 463.383C1532.09 361.679 1741.95 406.605 1843.98 563.791Z" fill="white" fill-opacity="0.9"/>
<path d="M605.939 1907.89C704.939 2079.36 903.134 2168.05 1096.6 2127.13L1219.45 2081.72L1590.02 1867.77C1608.56 1857.07 1619.51 1838.05 1619.84 1816.61L1619.51 1419.01L1110.27 1713.01L1110.22 1712.93L1086.06 1726.88L737.29 1525.6C703.528 1506.16 673.615 1481.02 648.563 1451.57L566.732 1537.58C526.201 1660.98 540.52 1795.78 605.939 1907.89ZM707.697 1849.14L708.517 1849.36C668.667 1780.34 654.182 1700.25 667.613 1621.71C669.902 1623.28 675.037 1625.97 678.396 1628.19L1038.43 1836.59C1056.64 1847.32 1079.11 1847.05 1097.65 1836.35L1519.66 1592.7L1519.79 1771.72L1170.95 1973.12C1008.97 2066.76 801.656 2011.28 707.697 1849.14Z" fill="white" fill-opacity="0.9"/>
<path d="M459.654 744.783C360.655 916.256 382.949 1132.24 515.112 1279.33L615.866 1363.02L986.438 1576.97C1004.97 1587.67 1026.93 1587.64 1045.65 1577.21L1389.82 1378.12L880.585 1084.11L880.635 1084.02L856.473 1070.07L856.405 667.39C856.358 628.432 863.17 589.959 876.148 553.539L760.747 525.675C633.616 552.273 524.035 632.073 459.654 744.783ZM561.412 803.533L561.632 804.353C601.481 735.332 663.598 682.743 738.328 655.106C738.117 657.871 738.352 663.665 738.111 667.682L737.648 1083.68C737.454 1104.82 748.929 1124.15 767.462 1134.85L1189.48 1378.5L1034.5 1468.12L685.668 1266.72C523.585 1173.25 467.973 965.976 561.412 803.533Z" fill="white" fill-opacity="0.9"/>
<path d="M2140.8 1683.14C2239.8 1511.67 2217.51 1295.68 2085.34 1148.6L1984.59 1064.91L1614.02 850.957C1595.48 840.257 1573.53 840.284 1554.8 850.719L1210.64 1049.81L1719.87 1343.81L1719.82 1343.9L1743.98 1357.85L1744.05 1760.53C1744.1 1799.49 1737.29 1837.97 1724.31 1874.39L1839.71 1902.25C1966.84 1875.65 2076.42 1795.85 2140.8 1683.14ZM2039.04 1624.39L2038.82 1623.57C1998.97 1692.59 1936.86 1745.18 1862.13 1772.82C1862.34 1770.05 1862.1 1764.26 1862.35 1760.24L1862.81 1344.24C1863 1323.11 1851.53 1303.78 1832.99 1293.08L1410.98 1049.43L1565.95 959.808L1914.79 1161.21C2076.87 1254.67 2132.48 1461.95 2039.04 1624.39Z" fill="white" fill-opacity="0.9"/>
</g>
<defs>
<clipPath id="clip0_229_366">
<rect width="2406" height="2406" fill="white"/>
</clipPath>
</defs>
</svg>
