<svg xmlns="http://www.w3.org/2000/svg" width="148" height="148" viewBox="0 0 148 148" fill="none">
  <g filter="url(#filter0_d_72_466)">
    <rect x="30" y="20" width="88" height="87.323" rx="43.6615" fill="#4A3AFF"/>
  </g>
  <path d="M84.7083 59.0103C84.7083 56.6206 83.6174 54.3288 81.6756 52.6391C79.7338 50.9493 77.1002 50 74.3541 50C71.608 50 68.9744 50.9493 67.0327 52.6391C65.0909 54.3288 64 56.6206 64 59.0103C64 59.4883 64.2182 59.9466 64.6065 60.2846C64.9949 60.6225 65.5216 60.8124 66.0708 60.8124C66.62 60.8124 67.1468 60.6225 67.5351 60.2846C67.9235 59.9466 68.1417 59.4883 68.1417 59.0103C68.1417 57.9411 68.506 56.8958 69.1886 56.0068C69.8713 55.1178 70.8415 54.4248 71.9767 54.0156C73.1119 53.6065 74.361 53.4994 75.5661 53.708C76.7712 53.9166 77.8782 54.4315 78.747 55.1876C79.6158 55.9436 80.2075 56.9069 80.4472 57.9556C80.6869 59.0043 80.5639 60.0913 80.0937 61.0792C79.6235 62.067 78.8272 62.9114 77.8056 63.5054C76.784 64.0994 75.5828 64.4165 74.3541 64.4165C73.8049 64.4165 73.2782 64.6064 72.8898 64.9443C72.5015 65.2823 72.2833 65.7406 72.2833 66.2186V69.8227C72.2833 70.3006 72.5015 70.759 72.8898 71.0969C73.2782 71.4349 73.8049 71.6248 74.3541 71.6248C74.9033 71.6248 75.4301 71.4349 75.8184 71.0969C76.2068 70.759 76.425 70.3006 76.425 69.8227V67.8404C78.7637 67.425 80.8656 66.3192 82.3751 64.7101C83.8845 63.101 84.7087 61.0875 84.7083 59.0103Z" fill="white"/>
  <path d="M74.3545 78.8326C75.4982 78.8326 76.4253 78.0258 76.4253 77.0306C76.4253 76.0353 75.4982 75.2285 74.3545 75.2285C73.2108 75.2285 72.2837 76.0353 72.2837 77.0306C72.2837 78.0258 73.2108 78.8326 74.3545 78.8326Z" fill="white"/>
  <defs>
    <filter id="filter0_d_72_466" x="0" y="0" width="148" height="147.323" filterUnits="userSpaceOnUse" color-interpolation-filters="sRGB">
      <feFlood flood-opacity="0" result="BackgroundImageFix"/>
      <feColorMatrix in="SourceAlpha" type="matrix" values="0 0 0 0 0 0 0 0 0 0 0 0 0 0 0 0 0 0 127 0" result="hardAlpha"/>
      <feOffset dy="10"/>
      <feGaussianBlur stdDeviation="15"/>
      <feColorMatrix type="matrix" values="0 0 0 0 0 0 0 0 0 0 0 0 0 0 0 0 0 0 0.25 0"/>
      <feBlend mode="normal" in2="BackgroundImageFix" result="effect1_dropShadow_72_466"/>
      <feBlend mode="normal" in="SourceGraphic" in2="effect1_dropShadow_72_466" result="shape"/>
    </filter>
  </defs>
</svg>