<svg xmlns="http://www.w3.org/2000/svg" fill="none" viewBox="0 0 48 48" id="Youtube-Logo--Streamline-Plump" height="48" width="48"><desc>Youtube Logo Streamline Icon: https://streamlinehq.com</desc><g id="youtube--youtube-clip-social-video"><path id="Rectangle 1095" stroke="#000000" stroke-linecap="round" stroke-linejoin="round" d="M3.444 35.044c0.235 2.528 2.24 4.385 4.774 4.543 3.225 0.2 8.388 0.413 15.782 0.413s12.557 -0.212 15.782 -0.413c2.534 -0.158 4.539 -2.015 4.774 -4.543 0.23 -2.476 0.444 -6.107 0.444 -11.044s-0.214 -8.568 -0.444 -11.044c-0.235 -2.528 -2.24 -4.385 -4.774 -4.543C36.557 8.213 31.394 8 24 8s-12.557 0.213 -15.782 0.413c-2.534 0.158 -4.539 2.015 -4.774 4.543C3.214 15.431 3 19.063 3 24s0.214 8.568 0.444 11.044Z" stroke-width="3"></path><path id="Rectangle 128" stroke="#000000" stroke-linecap="round" stroke-linejoin="round" d="M17.353 18.874c0.25 -1.73 1.775 -2.714 3.405 -2.083 1.144 0.442 2.686 1.132 4.713 2.209 1.938 1.03 3.432 1.941 4.56 2.695 1.758 1.175 1.758 3.435 0 4.61 -1.128 0.754 -2.622 1.666 -4.56 2.695 -2.027 1.077 -3.569 1.767 -4.713 2.21 -1.63 0.63 -3.155 -0.354 -3.405 -2.084A35.992 35.992 0 0 1 17 24c0 -2.078 0.163 -3.81 0.353 -5.126Z" stroke-width="3"></path></g></svg>