<svg xmlns="http://www.w3.org/2000/svg" width="35" height="36" viewBox="0 0 35 36" fill="none">
  <path fill-rule="evenodd" clip-rule="evenodd" d="M29.5229 10.4791C32.1887 10.4791 34.3498 8.31801 34.3498 5.6522C34.3498 2.98638 32.1887 0.825317 29.5229 0.825317C26.8571 0.825317 24.696 2.98638 24.696 5.6522C24.696 8.31801 26.8571 10.4791 29.5229 10.4791Z" fill="#8D8BA7"/>
  <path fill-rule="evenodd" clip-rule="evenodd" d="M29.5227 22.6019C32.1885 22.6019 34.3496 20.4409 34.3496 17.7752C34.3496 15.1095 32.1885 12.9485 29.5227 12.9485C26.8569 12.9485 24.6958 15.1095 24.6958 17.7752C24.6958 20.4409 26.8569 22.6019 29.5227 22.6019Z" fill="#8D8BA7"/>
  <path fill-rule="evenodd" clip-rule="evenodd" d="M29.5227 35.1746C32.1885 35.1746 34.3496 33.0136 34.3496 30.3478C34.3496 27.6819 32.1885 25.5209 29.5227 25.5209C26.8569 25.5209 24.6958 27.6819 24.6958 30.3478C24.6958 33.0136 26.8569 35.1746 29.5227 35.1746Z" fill="#8D8BA7"/>
  <path fill-rule="evenodd" clip-rule="evenodd" d="M16.9505 22.6021C19.6162 22.6021 21.7772 20.4411 21.7772 17.7753C21.7772 15.1096 19.6162 12.9486 16.9505 12.9486C14.2848 12.9486 12.1238 15.1096 12.1238 17.7753C12.1238 20.4411 14.2848 22.6021 16.9505 22.6021Z" fill="#8D8BA7"/>
  <path fill-rule="evenodd" clip-rule="evenodd" d="M16.9505 35.1746C19.6162 35.1746 21.7772 33.0136 21.7772 30.3478C21.7772 27.6819 19.6162 25.5209 16.9505 25.5209C14.2848 25.5209 12.1238 27.6819 12.1238 30.3478C12.1238 33.0136 14.2848 35.1746 16.9505 35.1746Z" fill="#8D8BA7"/>
  <path fill-rule="evenodd" clip-rule="evenodd" d="M4.82688 35.1746C7.49269 35.1746 9.65376 33.0136 9.65376 30.3478C9.65376 27.6819 7.49269 25.5209 4.82688 25.5209C2.16107 25.5209 0 27.6819 0 30.3478C0 33.0136 2.16107 35.1746 4.82688 35.1746Z" fill="#8D8BA7"/>
</svg>