<svg width="400" height="321" viewBox="0 0 400 321" fill="none" xmlns="http://www.w3.org/2000/svg">
<g clip-path="url(#clip0_223_8517)">
<rect width="400" height="321" fill="white"/>
<path d="M400 1.15607V72.2543L286.705 1.15607H400Z" fill="#962DFF" fill-opacity="0.7"/>
<path d="M342.196 35.8381L161.271 1.15607H290.173L342.196 35.8381Z" fill="#962DFF"/>
<path d="M36.4161 33.526L56.0696 47.3988H13.873L36.4161 33.526Z" fill="#962DFF"/>
<path d="M0 51.4451V0L37.5722 26.5896L0 51.4451Z" fill="#962DFF"/>
<path d="M60.1153 43.9306L1.15527 1.15607H162.427L60.1153 43.9306Z" fill="#E0C2FF"/>
<path d="M101.734 1.15607L59.5371 45.0867L160.693 1.15607H101.734Z" fill="#F0E3FF"/>
<path d="M129.088 297.999L0 307.26V326.942L129.088 297.999Z" fill="#E0C2FF" stroke="white"/>
<path d="M129.667 297.999L159.19 328.679H0.579102L129.667 297.999Z" fill="#B078E8"/>
<path d="M27.7857 304.945L1.15723 287V304.945H27.7857Z" fill="#962DFF"/>
<path d="M181 369.5L159.5 309L208 318L259 309L245.894 369.5H181Z" fill="#E7F5F6"/>
<path d="M307.959 295.104L400 299.735V310.155L307.959 295.104Z" fill="#962DFF"/>
<path d="M309.117 293.946L252.967 329.258H400V311.313L309.117 293.946Z" fill="#962DFF" fill-opacity="0.7"/>
<path d="M35.2393 122.569L70.932 133.899L37.9587 159.918L35.2393 122.569Z" fill="#E8D4F8"/>
<path d="M76.8435 79.3286L93.5148 87.4194L75.5148 97.8118L76.8435 79.3286Z" fill="#E8D4F8"/>
<path d="M3.98371 65.8518L11.5539 82.7659L-8.91492 79.1567L3.98371 65.8518Z" fill="#E8D4F8"/>
<path d="M375.759 123.597L380.806 134.873L367.16 132.466L375.759 123.597Z" fill="#E8D4F8"/>
<path d="M315.759 163.597L320.806 174.873L307.16 172.466L315.759 163.597Z" fill="#E8D4F8"/>
<path d="M368.235 222.165L377.575 230.251L364.19 233.838L368.235 222.165Z" fill="#E8D4F8"/>
<path d="M318.862 77.3718L315.945 92.5362L303.698 80.2888L318.862 77.3718Z" fill="#E8D4F8"/>
<path d="M70.1463 203.437L67.2293 218.602L54.9818 206.354L70.1463 203.437Z" fill="#E8D4F8"/>
</g>
<defs>
<clipPath id="clip0_223_8517">
<rect width="400" height="321" fill="white"/>
</clipPath>
</defs>
</svg>
