<svg width="48" height="68" viewBox="0 0 48 68" fill="none" xmlns="http://www.w3.org/2000/svg">
<path d="M36.1943 41.4811L25.9707 47.2424L37.7758 67.2L37.8283 67.1704L39.7255 58.9736L47.947 61.4683L47.9994 61.4387L36.1943 41.4811Z" fill="#962DFF"/>
<path d="M24.3896 47.2424L14.166 41.4811L2.36088 61.4388L2.41331 61.4683L10.6347 58.9736L12.532 67.1705L12.5844 67.2L24.3896 47.2424Z" fill="#962DFF"/>
<ellipse cx="23.6103" cy="23.0451" rx="23.6103" ry="23.0451" fill="white"/>
<ellipse cx="23.6099" cy="23.0451" rx="18.8882" ry="18.4361" fill="#962DFF"/>
<ellipse cx="23.6105" cy="23.0451" rx="14.1662" ry="13.827" fill="white"/>
<ellipse cx="23.6108" cy="23.0451" rx="11.8051" ry="11.5225" fill="#121212"/>
<path d="M23.6104 16.1315L25.2007 20.9087H30.3468L26.1835 23.8611L27.7738 28.6382L23.6104 25.6858L19.4471 28.6382L21.0373 23.8611L16.874 20.9087H22.0202L23.6104 16.1315Z" fill="white"/>
</svg>
